<mxfile host="app.diagrams.net" modified="2022-11-01T10:18:35.582Z" agent="5.0 (X11; Linux x86_64) AppleWebKit/537.36 (KHTML, like Gecko) Chrome/107.0.0.0 Safari/537.36" etag="ghn5hZMOZtghGpiuYTrh" version="20.5.1" type="github">
  <diagram name="Page-1" id="2c0d36ab-eaac-3732-788b-9136903baeff">
    <mxGraphModel dx="2110" dy="1340" grid="1" gridSize="10" guides="1" tooltips="1" connect="1" arrows="1" fold="1" page="1" pageScale="1.5" pageWidth="1169" pageHeight="827" background="none" math="0" shadow="0">
      <root>
        <mxCell id="0" />
        <mxCell id="1" parent="0" />
        <mxCell id="ABwLdj-i7ZITbCAgEGnA-137" value="Cart" style="shape=ext;double=1;rounded=1;whiteSpace=wrap;html=1;" vertex="1" parent="1">
          <mxGeometry x="1860" y="180" width="300" height="150" as="geometry" />
        </mxCell>
        <mxCell id="ABwLdj-i7ZITbCAgEGnA-138" value="" style="shape=ext;double=1;rounded=1;whiteSpace=wrap;html=1;" vertex="1" parent="1">
          <mxGeometry x="190" y="280" width="1050" height="1200" as="geometry" />
        </mxCell>
        <mxCell id="ABwLdj-i7ZITbCAgEGnA-142" value="" style="shape=ext;double=1;rounded=1;whiteSpace=wrap;html=1;" vertex="1" parent="1">
          <mxGeometry x="250" y="770" width="940" height="470" as="geometry" />
        </mxCell>
        <mxCell id="ABwLdj-i7ZITbCAgEGnA-135" value="" style="shape=ext;double=1;rounded=1;whiteSpace=wrap;html=1;" vertex="1" parent="1">
          <mxGeometry x="250" y="320" width="930" height="440" as="geometry" />
        </mxCell>
        <mxCell id="ABwLdj-i7ZITbCAgEGnA-139" value="" style="shape=ext;double=1;rounded=1;whiteSpace=wrap;html=1;" vertex="1" parent="1">
          <mxGeometry x="280" y="345" width="300" height="150" as="geometry" />
        </mxCell>
        <mxCell id="ABwLdj-i7ZITbCAgEGnA-143" value="App" style="text;strokeColor=none;fillColor=none;html=1;fontSize=24;fontStyle=1;verticalAlign=middle;align=center;" vertex="1" parent="1">
          <mxGeometry x="665" y="280" width="100" height="40" as="geometry" />
        </mxCell>
        <mxCell id="ABwLdj-i7ZITbCAgEGnA-140" value="" style="shape=ext;double=1;rounded=1;whiteSpace=wrap;html=1;" vertex="1" parent="1">
          <mxGeometry x="850" y="345" width="300" height="150" as="geometry" />
        </mxCell>
        <mxCell id="ABwLdj-i7ZITbCAgEGnA-144" value="&lt;font style=&quot;font-size: 24px;&quot;&gt;HeaderPicture(or slider)&lt;/font&gt;" style="shape=ext;double=1;rounded=1;whiteSpace=wrap;html=1;" vertex="1" parent="1">
          <mxGeometry x="270" y="530" width="880" height="200" as="geometry" />
        </mxCell>
        <mxCell id="ABwLdj-i7ZITbCAgEGnA-146" value="&lt;font style=&quot;font-size: 24px;&quot;&gt;Footer&lt;/font&gt;" style="shape=ext;double=1;rounded=1;whiteSpace=wrap;html=1;" vertex="1" parent="1">
          <mxGeometry x="260" y="1260" width="920" height="170" as="geometry" />
        </mxCell>
        <mxCell id="ABwLdj-i7ZITbCAgEGnA-148" value="&lt;font style=&quot;font-size: 24px;&quot;&gt;MenuItem&lt;/font&gt;" style="shape=ext;double=1;rounded=1;whiteSpace=wrap;html=1;" vertex="1" parent="1">
          <mxGeometry x="270" y="790" width="900" height="210" as="geometry" />
        </mxCell>
        <mxCell id="ABwLdj-i7ZITbCAgEGnA-150" value="" style="shape=image;html=1;verticalAlign=top;verticalLabelPosition=bottom;labelBackgroundColor=#ffffff;imageAspect=0;aspect=fixed;image=https://cdn4.iconfinder.com/data/icons/evil-icons-user-interface/64/cart-128.png;fontSize=24;" vertex="1" parent="1">
          <mxGeometry x="936" y="356" width="128" height="128" as="geometry" />
        </mxCell>
        <mxCell id="ABwLdj-i7ZITbCAgEGnA-151" value="" style="shape=image;html=1;verticalAlign=top;verticalLabelPosition=bottom;labelBackgroundColor=#ffffff;imageAspect=0;aspect=fixed;image=https://cdn3.iconfinder.com/data/icons/minimalisticons/28/burger-menu-2-128.png;fontSize=24;" vertex="1" parent="1">
          <mxGeometry x="360" y="356" width="128" height="128" as="geometry" />
        </mxCell>
        <mxCell id="ABwLdj-i7ZITbCAgEGnA-152" value="&lt;font style=&quot;font-size: 24px;&quot;&gt;Header&lt;/font&gt;" style="text;strokeColor=none;fillColor=none;html=1;fontSize=24;fontStyle=1;verticalAlign=middle;align=center;" vertex="1" parent="1">
          <mxGeometry x="600" y="400" width="220" height="40" as="geometry" />
        </mxCell>
        <mxCell id="ABwLdj-i7ZITbCAgEGnA-153" value="&lt;font style=&quot;font-size: 24px;&quot;&gt;MenuItem&lt;/font&gt;" style="shape=ext;double=1;rounded=1;whiteSpace=wrap;html=1;" vertex="1" parent="1">
          <mxGeometry x="270" y="1010" width="900" height="210" as="geometry" />
        </mxCell>
      </root>
    </mxGraphModel>
  </diagram>
</mxfile>
